<?xml version="1.0" standalone="no"?>
<!DOCTYPE svg PUBLIC "-//W3C//DTD SVG 20010904//EN"
 "http://www.w3.org/TR/2001/REC-SVG-20010904/DTD/svg10.dtd">
<svg version="1.0" xmlns="http://www.w3.org/2000/svg"
 width="300.000000pt" height="300.000000pt" viewBox="0 0 300.000000 300.000000"
 preserveAspectRatio="xMidYMid meet">
<metadata>
Created by potrace 1.10, written by Peter Selinger 2001-2011
</metadata>
<g transform="translate(0.000000,300.000000) scale(0.100000,-0.100000)"
fill="#000000" stroke="none">
<path d="M0 2959 c0 -24 5 -61 11 -81 12 -44 35 -53 25 -10 -4 15 -11 49 -16
76 -12 64 -20 70 -20 15z"/>
<path d="M473 2953 c-25 -27 -52 -61 -60 -78 -18 -34 -25 -85 -12 -85 5 0 12
12 15 28 4 15 18 37 30 49 16 15 22 28 17 40 -6 15 -4 16 9 6 8 -7 18 -9 23
-5 4 4 6 -10 3 -30 -2 -21 -1 -38 3 -38 3 0 4 -29 2 -65 -2 -38 0 -72 7 -82 8
-14 10 16 7 120 -4 135 -3 138 21 162 l25 25 -23 0 c-15 0 -39 -17 -67 -47z"/>
<path d="M721 2932 c-19 -42 -29 -76 -25 -86 5 -14 13 -4 30 40 13 33 31 71
39 87 13 22 14 27 2 27 -7 0 -28 -31 -46 -68z"/>
<path d="M842 2888 c5 -103 3 -119 -20 -183 -14 -38 -31 -74 -38 -78 -9 -5
-11 -18 -7 -37 9 -46 -4 -36 -38 31 -34 67 -32 93 2 35 14 -25 25 -34 32 -27
6 6 3 19 -11 38 -11 15 -33 54 -49 86 -27 53 -140 183 -150 173 -12 -12 108
-203 134 -213 8 -3 11 -13 7 -25 -3 -11 7 -42 26 -80 27 -51 31 -69 27 -107
-3 -25 -10 -47 -16 -49 -6 -2 -11 -10 -11 -18 0 -18 -14 -18 -30 1 -7 9 -20
13 -29 10 -12 -3 -17 1 -17 14 0 11 4 18 7 15 4 -2 9 8 11 23 l3 28 20 -32
c10 -18 23 -33 28 -33 4 0 -8 21 -28 46 -35 46 -38 55 -37 104 l1 25 -7 -24
-7 -24 -13 27 c-6 15 -12 40 -12 56 0 17 -5 30 -11 30 -5 0 -7 5 -4 10 8 13
-21 60 -37 60 -7 0 -5 -7 4 -17 24 -28 12 -82 -21 -94 -14 -6 -37 -8 -51 -6
-23 5 -24 4 -5 -9 21 -16 45 -18 45 -5 0 5 11 12 25 15 14 4 25 13 25 21 0 31
18 14 22 -21 4 -33 -11 -61 -20 -36 -5 15 -52 16 -52 1 0 -7 -12 -10 -30 -7
-17 3 -30 1 -30 -4 0 -4 20 -8 45 -8 29 0 45 -4 46 -12 2 -42 27 -101 38 -94
5 3 12 -1 15 -10 11 -29 6 -44 -14 -44 -11 0 -20 -4 -20 -9 0 -4 18 -7 41 -5
30 2 42 -1 46 -14 3 -9 13 -25 22 -36 13 -14 16 -45 17 -145 1 -69 7 -155 14
-191 l12 -65 -59 -53 c-32 -29 -77 -62 -100 -73 -62 -30 -93 -58 -93 -82 1
-34 33 -96 80 -156 31 -39 43 -63 42 -85 -1 -22 2 -26 8 -16 18 29 10 61 -21
87 -61 51 -107 163 -81 198 4 6 32 23 63 38 31 15 81 50 110 76 l53 48 37
-106 c43 -128 50 -142 101 -197 52 -56 70 -57 25 -1 -58 71 -105 168 -123 251
-15 76 -15 79 4 105 50 67 65 114 66 196 1 107 -32 265 -55 265 -4 0 -1 -16 7
-35 20 -48 18 -62 -6 -40 -17 16 -20 16 -20 2 0 -8 -3 -22 -6 -31 -4 -10 -1
-16 10 -16 8 0 23 -15 32 -32 l16 -33 -21 23 c-12 12 -27 22 -34 21 -8 0 -8
-2 2 -6 7 -3 21 -24 32 -47 16 -36 19 -38 20 -16 1 14 5 4 11 -24 10 -54 -7
-122 -46 -186 l-21 -35 -7 55 c-3 30 -6 96 -7 147 -1 50 -5 95 -11 98 -13 8
-13 32 1 95 6 27 15 48 20 45 5 -4 6 0 3 8 -3 8 -1 18 4 21 6 3 8 15 5 25 -5
20 42 178 58 196 9 9 -17 -89 -29 -110 -3 -7 -1 -7 6 0 6 6 22 41 35 78 20 53
23 76 16 100 -6 20 -5 33 2 38 7 4 7 19 -1 50 -7 24 -9 64 -6 91 6 41 4 48
-10 48 -15 0 -16 -12 -12 -112z m-211 -288 c3 -20 4 -25 11 -35 12 -19 -6 -32
-32 -24 -16 4 -19 7 -7 8 25 1 21 21 -5 21 -20 0 -21 1 -3 20 20 22 34 26 36
10z m99 -215 c0 -21 -17 -18 -30 4 -15 28 -13 33 10 21 11 -6 20 -17 20 -25z
m28 -365 l0 -35 -8 30 c-4 17 -8 44 -8 60 0 29 0 29 8 5 4 -14 8 -41 8 -60z"/>
<path d="M932 2983 c-20 -41 -54 -134 -50 -138 2 -3 19 30 36 72 18 42 30 78
28 80 -2 3 -9 -4 -14 -14z"/>
<path d="M967 2993 c-16 -26 -87 -208 -86 -222 0 -9 17 27 38 79 20 52 43 106
50 118 11 22 10 44 -2 25z"/>
<path d="M1096 2928 c-27 -125 -28 -171 -2 -73 13 50 29 102 35 118 8 21 8 27
-3 27 -9 0 -20 -25 -30 -72z"/>
<path d="M2492 2993 c12 -23 38 -81 47 -103 9 -22 9 -21 4 10 -6 32 -39 100
-50 100 -2 0 -3 -3 -1 -7z"/>
<path d="M2810 2953 c-11 -26 -17 -54 -14 -62 6 -12 9 -10 12 9 2 14 7 27 12
30 9 6 24 70 16 70 -3 0 -14 -21 -26 -47z"/>
<path d="M2642 2965 c-29 -30 -39 -75 -18 -75 9 0 13 6 10 14 -3 8 4 25 15 37
12 13 21 29 21 36 0 17 -1 17 -28 -12z"/>
<path d="M1220 2913 c-3 -85 -6 -105 -20 -113 -12 -7 -11 -15 4 -43 18 -33 18
-38 -9 -265 -16 -128 -32 -232 -36 -232 -10 0 -29 117 -29 178 0 40 3 50 14
46 8 -3 16 -1 19 3 3 5 -11 14 -32 19 l-38 10 0 -60 c0 -53 1 -54 4 -13 7 78
20 53 26 -50 4 -66 15 -126 33 -183 15 -47 27 -91 25 -98 -2 -14 93 -112 110
-112 6 0 0 9 -14 20 -30 24 -87 107 -87 128 0 11 9 13 38 9 l37 -6 -35 11
c-19 5 -41 12 -49 14 -10 3 -12 16 -7 52 34 235 56 447 58 554 1 70 4 125 8
123 3 -2 4 9 2 26 -7 45 -20 34 -22 -18z"/>
<path d="M961 2904 c-11 -42 -35 -142 -46 -188 -6 -27 -7 -28 -21 -10 -13 17
-14 16 -1 -11 9 -19 11 -40 7 -57 -18 -61 -33 -244 -27 -326 10 -157 77 -338
142 -388 71 -54 183 -173 219 -232 21 -35 55 -81 76 -103 20 -21 34 -39 31
-39 -11 -1 41 -40 53 -40 6 1 -2 8 -19 17 -24 14 -26 18 -12 21 25 5 21 29 -7
36 -14 3 -38 27 -59 58 -71 109 -113 224 -123 343 -2 33 -7 79 -9 103 -3 24
-1 41 3 38 4 -2 -5 34 -21 81 -16 47 -32 104 -37 127 -7 35 -8 29 -7 -39 0
-44 2 -66 5 -50 4 28 5 27 19 -20 7 -27 18 -97 23 -155 11 -115 26 -208 41
-247 19 -49 1 -34 -26 22 -14 31 -29 55 -32 52 -2 -3 0 -14 5 -24 18 -36 1
-43 -26 -10 -15 17 -30 33 -33 35 -3 1 -15 10 -25 18 -18 14 -18 15 3 5 12 -6
30 -11 40 -11 10 0 0 9 -22 19 -22 10 -48 28 -59 39 -10 12 -22 19 -27 17 -4
-3 -11 0 -15 6 -5 8 -3 9 6 4 8 -5 11 -3 8 6 -3 8 -9 13 -14 12 -5 -1 -10 10
-10 23 -1 13 1 24 6 24 4 0 2 15 -3 33 -6 19 -16 34 -23 34 -9 0 -8 -9 2 -33
8 -18 10 -35 5 -38 -12 -8 -33 68 -24 90 4 12 3 15 -6 10 -9 -6 -11 2 -7 31 4
27 3 31 -2 13 -7 -20 -11 -7 -22 63 -18 117 4 367 32 367 6 0 8 -10 5 -22 -3
-13 -8 -45 -11 -73 -4 -40 -4 -44 4 -20 5 17 12 43 15 58 l6 29 39 -35 c51
-47 79 -62 82 -45 1 7 5 -41 8 -107 l6 -120 1 140 c0 77 -2 132 -4 123 -3 -10
-8 -18 -11 -18 -13 0 -106 75 -126 103 l-20 27 31 133 c17 72 29 134 28 136
-2 1 -8 -14 -14 -35z"/>
<path d="M1250 2879 c0 -29 30 -181 52 -259 24 -88 92 -250 141 -337 53 -94
91 -145 180 -246 45 -51 107 -130 137 -175 54 -81 76 -102 46 -43 -9 16 -16
40 -16 53 -1 15 -12 30 -33 43 -18 11 -33 30 -35 43 -2 12 -7 22 -12 22 -5 0
-23 16 -42 37 -18 20 -52 55 -75 78 -90 90 -203 294 -264 476 -32 97 -36 134
-14 143 8 3 15 11 14 18 0 9 -2 10 -5 1 -8 -19 -34 -3 -34 22 0 12 -7 39 -15
59 -9 20 -14 40 -11 44 3 5 1 14 -5 22 -7 13 -9 12 -9 -1z"/>
<path d="M1976 2871 c-4 -5 -3 -17 1 -27 6 -16 7 -16 20 2 7 10 13 21 13 26 0
11 -27 10 -34 -1z"/>
<path d="M1111 2818 c-21 -107 -33 -205 -28 -224 2 -10 6 1 7 26 l3 45 7 -40
c6 -33 7 -25 9 41 0 44 6 106 12 138 6 32 8 60 6 63 -3 2 -10 -19 -16 -49z"/>
<path d="M35 2795 c6 -42 35 -85 35 -53 0 9 -5 20 -10 23 -6 4 -8 11 -5 16 4
5 -1 19 -10 31 -16 22 -16 22 -10 -17z"/>
<path d="M2160 2737 c0 -4 15 -63 34 -130 19 -67 41 -149 50 -182 8 -33 15
-51 15 -41 1 24 -67 289 -85 330 -7 17 -13 27 -14 23z"/>
<path d="M2452 2723 c22 -27 39 -73 32 -86 -5 -9 -4 -9 5 -1 9 8 7 22 -8 57
-11 26 -26 47 -32 47 -8 0 -8 -5 3 -17z"/>
<path d="M1595 2701 c-35 -6 -37 -8 -17 -14 25 -9 62 -1 62 14 0 5 -1 8 -2 8
-2 -1 -21 -5 -43 -8z"/>
<path d="M1340 2677 c0 -30 152 -367 165 -367 3 0 -13 36 -35 80 -22 44 -58
126 -81 182 -39 98 -49 120 -49 105z"/>
<path d="M1506 2640 c3 -14 30 -74 60 -134 56 -111 65 -143 23 -84 -13 18 -27
35 -31 36 -5 2 -6 8 -2 13 3 5 0 8 -8 7 -7 -2 -12 5 -12 14 1 10 -2 15 -7 13
-4 -3 -17 12 -28 33 -11 21 -27 45 -37 53 -24 19 45 -87 120 -186 107 -142
288 -313 384 -364 41 -22 23 -3 -45 45 -80 57 -213 181 -213 199 0 7 -13 27
-29 44 -15 16 -26 33 -23 36 3 3 -3 5 -14 5 -12 0 -15 3 -7 8 8 5 4 19 -14 47
-14 22 -47 85 -74 140 -27 55 -47 89 -43 75z"/>
<path d="M1400 2616 c0 -4 9 -25 21 -47 27 -54 91 -229 92 -256 1 -11 5 -19
10 -16 4 2 7 -4 7 -14 0 -10 12 -31 26 -48 22 -25 24 -26 12 -5 -22 38 -68
157 -88 226 -19 64 -80 187 -80 160z"/>
<path d="M2590 2598 c0 -46 11 -66 32 -60 16 4 19 10 14 35 -9 46 -46 65 -46
25z"/>
<path d="M811 2569 c-1 -8 10 -37 23 -65 14 -27 25 -42 25 -34 1 21 -47 119
-48 99z"/>
<path d="M2428 2540 c18 -17 42 -30 55 -30 22 0 22 1 -3 20 -14 11 -38 24 -55
30 l-30 10 33 -30z"/>
<path d="M471 2505 c-5 -19 -9 -61 -16 -145 -4 -52 -12 -91 -21 -101 -13 -15
-13 -17 0 -22 22 -9 26 3 37 113 9 82 8 190 0 155z"/>
<path d="M1266 2463 c12 -47 80 -199 120 -265 74 -124 170 -243 139 -171 -5
10 -9 22 -9 26 -1 5 -12 17 -26 27 -14 11 -19 20 -13 20 13 0 -17 64 -40 85
-6 6 -3 -3 7 -18 10 -16 15 -31 12 -35 -7 -7 -3 -13 -58 78 -49 79 -98 180
-118 243 -13 43 -24 50 -14 10z"/>
<path d="M133 2450 c-28 -11 -29 -21 -3 -43 13 -11 20 -29 20 -51 0 -19 4 -37
10 -41 5 -3 6 -13 3 -22 -4 -11 -2 -14 8 -11 8 3 12 12 9 19 -4 13 -8 67 -9
132 -1 29 -4 31 -38 17z"/>
<path d="M1719 2443 c-1 -4 -1 -11 0 -15 0 -5 -6 -8 -15 -8 -9 0 -14 -6 -11
-12 2 -7 10 -13 17 -13 16 0 33 42 20 50 -6 4 -11 3 -11 -2z"/>
<path d="M1536 2375 c16 -27 32 -52 36 -53 5 -2 6 -8 3 -12 -3 -5 13 -46 35
-91 22 -44 40 -86 40 -91 0 -6 14 -30 30 -55 17 -24 28 -49 25 -54 -3 -5 1 -6
9 -3 10 4 30 -10 55 -38 23 -23 41 -38 41 -33 0 6 -25 35 -56 65 -42 42 -70
83 -115 174 -33 65 -58 120 -56 122 2 3 17 -12 32 -32 39 -51 168 -176 215
-209 70 -49 52 -21 -26 40 -42 33 -115 106 -163 163 -135 164 -137 166 -105
107z"/>
<path d="M622 2389 c-12 -19 -12 -20 10 -14 29 9 31 11 23 24 -9 16 -19 13
-33 -10z"/>
<path d="M1776 2349 c14 -28 27 -49 30 -47 5 5 -45 98 -52 98 -2 0 7 -23 22
-51z"/>
<path d="M2747 2350 c6 -49 23 -91 22 -55 0 11 -7 38 -14 60 l-13 40 5 -45z"/>
<path d="M906 2354 c-10 -25 -7 -74 4 -74 6 0 10 20 10 45 0 47 -4 55 -14 29z"/>
<path d="M2261 2354 c-1 -5 8 -59 19 -120 39 -211 44 -461 14 -631 -7 -35 2
-57 18 -47 7 4 7 9 0 13 -7 4 -7 25 0 64 7 42 14 57 26 57 21 0 95 20 90 24
-1 2 -27 0 -55 -3 -41 -6 -53 -4 -53 6 0 7 6 13 13 13 8 0 8 3 1 8 -6 4 -9 34
-6 78 l4 71 58 6 c54 5 107 23 97 33 -2 3 -24 0 -48 -7 -24 -6 -58 -12 -75
-14 -31 -3 -32 -2 -38 48 -4 35 -2 54 7 59 9 6 9 8 0 8 -6 0 -12 8 -11 18 0
50 -58 354 -61 316z"/>
<path d="M635 2330 c-13 -21 -10 -228 4 -264 11 -27 9 -32 -21 -63 -17 -18
-27 -33 -22 -33 6 0 22 12 36 28 l26 27 -7 160 c-4 110 -9 155 -16 145z"/>
<path d="M1891 2280 c32 -66 220 -222 294 -245 15 -5 14 -3 -4 8 -18 11 -21
16 -10 21 8 3 3 3 -11 0 -14 -4 -22 -3 -17 1 4 5 -20 21 -53 37 -41 20 -75 47
-109 86 -104 120 -104 120 -90 92z"/>
<path d="M1825 2263 c41 -65 101 -136 139 -166 40 -31 40 -31 -12 28 -29 33
-67 81 -85 107 -35 52 -73 79 -42 31z"/>
<path d="M170 2260 c0 -6 5 -10 11 -10 6 0 9 -7 5 -15 -3 -8 -1 -15 4 -15 5 0
6 -16 3 -37 -5 -28 -3 -34 7 -28 8 5 11 4 7 -2 -4 -6 -2 -25 4 -44 12 -39 22
-96 21 -121 -1 -10 3 -18 9 -18 5 0 9 -10 9 -22 0 -12 6 -44 14 -72 8 -28 26
-96 41 -151 46 -174 83 -305 135 -480 29 -93 60 -199 69 -234 11 -37 21 -59
25 -52 13 20 32 -4 56 -70 18 -48 22 -71 16 -120 -5 -57 -1 -75 58 -252 35
-106 87 -265 116 -354 35 -110 56 -163 65 -163 12 0 9 13 -10 56 -27 60 -31
89 -15 99 11 7 54 -75 65 -123 4 -18 13 -32 21 -32 10 0 13 7 8 25 -4 15 -1
32 7 43 13 15 12 16 -3 3 -18 -13 -24 -7 -19 22 0 4 -3 7 -8 7 -4 0 -22 31
-40 68 -17 38 -34 72 -38 76 -4 3 -8 25 -10 47 -2 23 -10 51 -18 62 -8 12 -15
31 -15 43 0 12 -16 41 -35 64 -36 43 -57 97 -48 128 2 10 -6 38 -18 62 -16 30
-22 59 -22 94 1 31 -9 82 -25 131 -15 44 -27 83 -27 87 0 4 -6 13 -12 19 -7 7
-13 21 -13 30 0 10 -4 21 -10 24 -5 3 -10 16 -10 29 0 12 -3 26 -7 30 -4 3 -8
17 -10 29 -2 12 -7 31 -12 42 -5 11 -12 33 -16 48 -3 17 -10 25 -17 21 -7 -5
-8 -1 0 11 5 11 6 28 2 39 -5 12 -18 55 -30 96 -12 41 -32 107 -45 145 -13 39
-26 87 -30 108 -4 20 -12 37 -18 37 -6 0 -8 3 -5 6 4 3 -5 47 -19 97 -14 51
-26 97 -27 102 -11 48 -29 105 -42 128 -8 15 -12 27 -9 27 3 0 1 8 -4 19 -6
10 -12 35 -14 54 -2 20 -9 43 -16 50 -6 8 -8 17 -4 20 3 4 -1 7 -11 7 -13 0
-16 5 -11 20 3 11 4 29 0 39 -6 20 -35 37 -35 21z"/>
<path d="M436 2208 c-17 -66 -25 -111 -21 -118 3 -5 0 -12 -6 -16 -8 -5 -9 -3
-4 6 6 10 4 11 -11 5 -10 -5 -32 -9 -49 -10 -16 -1 -28 -6 -25 -11 3 -5 26 -8
51 -7 l46 2 7 -98 c11 -163 61 -333 151 -511 65 -129 105 -253 105 -325 0 -35
-4 -67 -10 -70 -18 -11 -11 -35 10 -35 11 0 20 -7 20 -15 0 -16 16 -16 200 10
63 9 184 18 268 22 84 3 148 9 142 13 -14 9 11 20 45 20 25 0 62 -43 91 -104
13 -25 24 -36 38 -35 16 1 17 2 5 6 -10 2 -15 11 -13 21 3 9 -4 29 -13 43 -74
109 -84 116 -142 99 -17 -5 -48 -7 -69 -4 -28 3 -32 2 -17 -5 11 -5 31 -10 45
-11 l25 -1 -25 -10 c-13 -6 -56 -12 -95 -14 l-70 -5 25 20 c65 50 197 100 288
107 62 6 62 6 99 -33 69 -73 137 -159 189 -240 58 -88 81 -113 81 -89 0 8 -4
12 -8 9 -4 -2 -11 6 -15 18 -4 13 -22 47 -40 76 -20 30 -29 52 -21 52 23 0
171 -112 241 -181 38 -38 71 -67 74 -64 8 7 -25 51 -68 91 -22 21 -40 43 -40
51 0 7 -6 13 -13 13 -7 0 -38 19 -68 41 -30 23 -80 54 -112 69 -42 20 -80 51
-133 108 l-74 80 53 45 c28 24 90 63 136 86 45 23 81 44 78 47 -10 10 -180
-79 -231 -120 -43 -36 -58 -42 -85 -38 -76 11 -260 -52 -342 -117 -31 -25 -49
-30 -147 -41 -61 -7 -118 -10 -127 -6 -9 3 -14 2 -11 -3 8 -12 -64 -22 -84
-11 -20 11 -36 48 -45 105 -10 64 -34 132 -86 244 -27 57 -46 108 -42 114 4 6
1 7 -7 2 -10 -6 -12 -4 -7 9 4 9 3 15 -2 12 -11 -7 -87 190 -108 284 -13 57
-17 119 -17 253 0 164 -1 196 -10 165z"/>
<path d="M531 2200 c-10 -88 -10 -113 0 -103 5 5 8 36 6 69 -2 32 -5 48 -6 34z"/>
<path d="M1090 2191 c0 -19 33 -156 39 -163 10 -11 -12 114 -22 130 -5 7 -6
19 -3 27 3 8 1 15 -4 15 -6 0 -10 -4 -10 -9z"/>
<path d="M1205 2140 c3 -5 15 -10 26 -10 11 0 18 -4 14 -9 -3 -5 8 -19 25 -31
16 -12 30 -18 30 -13 0 4 12 -5 26 -22 14 -16 22 -24 19 -17 -6 11 -3 11 14 0
12 -7 21 -15 21 -19 0 -16 99 -102 119 -104 9 -1 32 -16 51 -34 45 -42 90 -74
90 -65 0 4 9 -1 20 -11 21 -19 50 -37 85 -53 11 -6 28 -19 39 -31 10 -11 22
-18 27 -16 4 3 10 1 14 -5 3 -5 16 -15 28 -20 12 -6 0 9 -28 34 -27 24 -52 44
-56 43 -3 -1 -37 21 -74 48 -38 28 -70 48 -71 45 -1 -3 -12 8 -24 23 -12 16
-28 26 -36 23 -7 -3 -16 0 -20 6 -5 7 -2 8 7 3 12 -8 12 -6 0 8 -7 9 -18 17
-24 17 -5 0 -20 12 -33 26 -13 14 -29 22 -34 19 -6 -4 -9 -3 -8 2 3 10 -33 49
-90 97 -46 38 -79 48 -68 20 3 -9 2 -12 -5 -9 -6 4 -8 14 -5 22 4 9 -6 19 -29
29 -40 16 -59 18 -50 4z"/>
<path d="M1085 2076 c7 -45 45 -170 50 -164 2 2 -10 48 -26 103 -16 55 -27 83
-24 61z"/>
<path d="M860 2073 c0 -7 13 -27 30 -45 16 -18 29 -28 29 -23 0 15 -58 82 -59
68z"/>
<path d="M1245 1984 c33 -13 64 -26 69 -27 5 -1 18 -10 29 -20 10 -10 22 -16
25 -12 10 10 -60 66 -75 61 -7 -3 -28 1 -47 9 -20 8 -41 15 -48 15 -7 0 14
-12 47 -26z"/>
<path d="M1952 2002 c-10 -3 -7 -11 9 -28 13 -14 17 -24 10 -24 -7 0 -9 -5 -5
-11 5 -8 9 -8 14 1 5 8 16 9 31 5 13 -5 24 -6 25 -4 0 2 8 -2 17 -10 9 -7 34
-15 54 -17 31 -3 34 -2 13 5 -58 20 -138 60 -146 74 -5 8 -15 12 -22 9z"/>
<path d="M2140 1957 c0 -3 24 -13 53 -23 72 -23 77 -28 37 -35 l-35 -6 33 -12
c32 -13 44 -41 17 -41 -19 0 -20 -16 -1 -23 21 -8 26 2 26 58 l0 52 -47 11
c-27 6 -56 14 -65 17 -10 4 -18 5 -18 2z"/>
<path d="M1226 1929 c11 -12 24 -17 40 -13 18 5 26 0 39 -25 16 -32 29 -39 40
-21 4 6 15 -1 27 -17 48 -64 98 -109 182 -164 48 -33 82 -59 74 -59 -8 0 -35
13 -59 30 -24 16 -49 30 -55 30 -5 0 -23 14 -40 31 -17 18 -36 28 -46 26 -10
-3 -17 -2 -16 2 3 29 -25 63 -46 55 -9 -3 -13 -10 -10 -15 3 -5 -2 -6 -11 -3
-12 5 -13 10 -6 17 12 12 15 48 4 46 -28 -5 -53 3 -53 16 0 8 -5 15 -11 15 -6
0 -8 -9 -4 -21 7 -20 5 -21 -24 -16 -17 4 -31 3 -31 -2 0 -10 35 -21 68 -21
32 0 27 -19 -10 -35 l-33 -14 45 -1 c36 0 49 -6 63 -26 24 -32 13 -45 -13 -16
-25 27 -26 27 -26 2 0 -11 6 -20 14 -20 7 0 10 -4 7 -10 -9 -14 18 -13 33 2 8
8 15 8 26 -1 12 -10 17 -8 26 8 11 22 30 28 30 10 0 -5 -4 -7 -10 -4 -9 6 -14
-8 -11 -28 1 -5 -4 -6 -11 -2 -7 4 -3 -2 10 -12 13 -10 20 -22 16 -26 -4 -4
-13 -2 -21 4 -10 9 -13 8 -13 -5 0 -9 7 -16 16 -16 14 0 14 -3 4 -15 -13 -16
-3 -20 18 -7 7 5 10 16 6 25 -8 21 4 21 30 2 10 -8 22 -12 26 -10 4 2 16 -11
26 -30 19 -36 28 -42 39 -25 9 14 35 12 31 -2 -1 -7 -1 -10 1 -5 6 10 51 9 57
-2 3 -4 18 -7 33 -5 28 4 28 4 3 -5 -14 -5 -37 -9 -52 -10 -31 -1 -155 -48
-164 -62 -3 -5 16 -1 43 9 26 11 89 30 140 43 92 23 111 39 48 39 -26 0 -33 3
-29 15 7 17 39 20 49 6 3 -6 14 -8 25 -6 11 2 24 -3 28 -11 5 -9 24 -16 43
-17 23 -1 34 -7 34 -17 0 -8 21 -32 48 -53 26 -20 47 -41 47 -45 0 -4 -17 -15
-38 -24 -35 -17 -35 -17 -7 -13 17 3 47 8 68 12 37 6 52 23 20 23 -9 0 -36 19
-59 43 -23 23 -52 51 -64 62 l-22 20 44 7 c95 15 122 10 188 -33 34 -22 69
-38 76 -35 22 9 16 -18 -9 -42 -18 -17 -36 -22 -76 -22 -53 0 -53 0 -46 -27
17 -72 123 -203 215 -266 25 -17 92 -69 149 -115 92 -75 185 -131 197 -120 2
3 -18 14 -44 25 -47 21 -130 86 -102 80 8 -2 12 -2 7 0 -4 3 -5 9 -2 14 4 5
-2 6 -12 2 -10 -3 -14 -2 -10 2 4 5 -7 17 -25 26 l-33 18 57 -6 c54 -5 118 9
118 27 0 4 11 12 24 18 23 10 83 98 74 107 -2 2 -15 -15 -28 -39 -58 -107
-157 -99 -310 22 -76 60 -220 194 -220 203 0 14 51 -1 81 -24 25 -18 29 -18
57 -3 17 9 32 20 34 26 4 12 104 -16 207 -59 84 -35 81 -34 81 -21 0 6 -7 10
-15 10 -9 0 -36 11 -61 24 -24 13 -81 34 -125 47 -72 21 -80 25 -74 44 4 11 9
31 11 45 l4 25 -11 -25 c-7 -14 -19 -39 -26 -56 -15 -34 -54 -61 -73 -49 -9 5
-4 15 14 32 15 13 23 29 20 35 -4 6 -13 0 -23 -16 -8 -14 -24 -26 -34 -26 -16
0 -15 5 11 34 17 19 33 45 37 58 4 13 16 30 27 39 17 13 21 30 24 98 2 45 6
86 8 90 3 4 1 21 -4 37 -7 24 -8 25 -9 7 -1 -26 -11 -29 -29 -11 -7 7 -12 9
-12 5 0 -14 -65 25 -132 80 -38 29 -68 52 -68 49 0 -22 190 -156 221 -156 18
0 25 -11 13 -22 -10 -11 -124 22 -184 52 -45 23 -60 27 -60 16 0 -8 -6 -16
-12 -19 -9 -3 -10 -8 -3 -14 18 -18 164 -73 210 -80 37 -5 45 -9 45 -27 0 -30
-19 -94 -30 -101 -23 -14 -122 39 -203 110 -46 41 -87 72 -90 68 -10 -9 179
-160 218 -174 36 -13 47 -29 19 -29 -45 0 -273 168 -258 191 3 5 1 9 -5 9 -5
0 -18 3 -28 6 -10 3 17 -28 60 -69 l78 -74 -58 -2 c-32 -1 -66 -4 -77 -7 -12
-4 -16 -2 -12 5 5 7 -3 11 -23 11 -63 0 -190 50 -279 110 -88 58 -182 148
-182 172 0 14 -68 45 -126 58 -34 8 -35 8 -18 -11z m932 -199 c44 -14 56 -30
22 -30 -23 0 -111 34 -145 56 -42 28 -17 35 33 10 26 -13 66 -29 90 -36z
m-758 32 c0 -4 -5 -14 -10 -22 -9 -13 -11 -13 -20 0 -14 21 -12 26 10 27 11 1
20 -1 20 -5z m74 -75 c-7 -20 -34 -23 -34 -4 0 19 22 39 32 29 5 -5 6 -16 2
-25z m56 -16 c0 -5 14 -14 30 -21 17 -7 30 -16 30 -21 0 -5 9 -9 20 -9 12 0
20 -7 20 -17 0 -14 -9 -18 -43 -19 -29 -1 -36 1 -22 6 18 7 18 8 -7 15 -18 4
-30 17 -37 37 -13 38 -13 38 -1 38 6 0 10 -4 10 -9z m150 -76 c0 -8 -9 -15
-20 -15 -11 0 -20 7 -20 15 0 8 9 15 20 15 11 0 20 -7 20 -15z m423 -222 c20
-28 23 -39 14 -46 -8 -6 -4 -7 10 -4 17 4 34 -9 76 -53 30 -32 69 -66 86 -76
17 -10 31 -21 31 -24 0 -3 32 -21 70 -40 80 -39 90 -56 28 -46 -47 8 -197 102
-198 124 0 7 -4 11 -9 8 -10 -7 -111 102 -108 115 1 4 -5 14 -14 21 -19 15
-35 58 -21 58 5 0 21 -17 35 -37z"/>
<path d="M996 1860 c33 -62 184 -219 260 -270 l49 -33 -59 55 c-33 32 -55 61
-52 67 4 6 -3 15 -17 20 -44 17 -94 70 -121 127 -15 31 -30 54 -33 50 -4 -3
-18 4 -31 16 -25 23 -25 22 4 -32z"/>
<path d="M1405 1881 c17 -18 44 -42 60 -54 35 -24 27 -15 -40 44 -37 32 -42
35 -20 10z"/>
<path d="M2968 1782 c3 -56 0 -75 -17 -105 -23 -41 -15 -49 15 -16 16 17 18
34 16 97 -2 43 -7 81 -11 85 -4 4 -6 -23 -3 -61z"/>
<path d="M2664 1815 c-4 -8 -16 -15 -28 -16 -11 0 -15 -3 -8 -6 7 -3 -6 -21
-35 -50 -27 -25 -39 -39 -28 -32 49 32 129 119 110 119 -3 0 -8 -7 -11 -15z"/>
<path d="M1472 1797 c26 -21 159 -97 147 -84 -3 4 -43 29 -90 57 -46 27 -72
40 -57 27z"/>
<path d="M2371 1749 c-13 -5 -22 -11 -19 -14 5 -5 78 14 78 20 0 8 -33 4 -59
-6z"/>
<path d="M2646 1660 c-56 -58 -87 -112 -85 -147 0 -16 1 -16 9 2 5 11 11 32
14 46 3 14 33 56 67 92 76 83 72 88 -5 7z"/>
<path d="M120 1689 c0 -5 -5 -7 -12 -3 -7 4 -8 3 -4 -4 4 -7 13 -12 20 -12 21
0 50 -52 48 -83 -3 -30 23 -77 30 -56 5 16 -16 99 -28 107 -5 4 -15 19 -21 35
-12 26 -33 37 -33 16z"/>
<path d="M1384 1682 c4 -7 3 -12 -2 -12 -5 0 -20 -10 -33 -21 -25 -23 -22 -22
24 0 29 15 34 26 15 37 -7 4 -8 3 -4 -4z"/>
<path d="M2395 1642 c-17 -20 -31 -45 -31 -55 -1 -16 1 -15 22 4 13 12 24 30
24 39 0 9 5 21 12 28 6 6 10 14 7 16 -3 3 -18 -12 -34 -32z"/>
<path d="M2647 1554 c-4 -23 -16 -53 -28 -67 -11 -15 -15 -27 -9 -27 15 0 52
86 48 113 -2 15 -6 9 -11 -19z"/>
<path d="M173 1504 c-18 -8 -4 -34 18 -34 21 0 22 1 13 24 -6 17 -11 18 -31
10z"/>
<path d="M490 1491 c0 -5 4 -11 9 -13 5 -1 20 -21 35 -42 14 -21 26 -35 26
-29 0 10 -59 93 -66 93 -2 0 -4 -4 -4 -9z"/>
<path d="M597 1477 c-5 -13 4 -29 65 -119 10 -15 18 -32 18 -38 0 -6 6 -10 13
-8 18 4 106 -22 152 -45 28 -14 36 -16 27 -5 -13 16 -59 37 -132 59 -36 11
-52 24 -77 62 -18 27 -32 52 -30 55 1 4 -5 17 -14 30 -13 17 -18 20 -22 9z"/>
<path d="M200 1271 c0 -28 33 -51 75 -51 97 0 156 -109 146 -267 -2 -21 -65
-15 -91 7 -34 29 -48 9 -20 -28 12 -17 19 -35 16 -41 -10 -15 16 -51 36 -51
19 0 24 15 9 24 -5 3 -11 14 -13 23 -4 15 1 18 31 17 51 -2 54 -3 75 -19 16
-12 17 -17 5 -31 -7 -9 -15 -27 -17 -41 -2 -20 0 -23 15 -15 23 12 43 5 43
-16 1 -17 29 -74 30 -59 0 10 -48 164 -62 197 -5 14 -12 36 -14 50 -11 69 -29
132 -56 196 -24 57 -34 72 -51 72 -41 1 -92 15 -102 27 -5 7 -20 15 -32 18
-17 4 -23 1 -23 -12z"/>
<path d="M613 1283 c3 -5 10 -28 17 -52 6 -23 13 -41 16 -38 8 8 -18 97 -28
97 -5 0 -7 -3 -5 -7z"/>
<path d="M950 1224 c30 -14 63 -32 72 -41 9 -8 24 -13 34 -11 17 3 17 4 0 20
-14 15 -68 35 -146 55 -8 2 10 -8 40 -23z"/>
<path d="M2448 1210 c-21 -22 -33 -40 -27 -40 14 0 69 55 69 69 0 15 -1 15
-42 -29z"/>
<path d="M552 1203 c6 -24 14 -43 19 -43 16 0 9 34 -11 60 l-19 25 11 -42z"/>
<path d="M966 1069 c-22 -5 -42 -12 -45 -16 -3 -3 5 -3 19 0 14 3 48 9 75 13
28 3 52 8 54 10 8 7 -63 2 -103 -7z"/>
<path d="M0 979 c0 -75 4 -104 20 -137 11 -22 20 -46 20 -52 0 -5 4 -18 9 -28
13 -23 46 -125 43 -134 -1 -5 2 -8 6 -8 4 0 9 -11 10 -26 1 -14 6 -33 11 -42
5 -9 18 -57 30 -106 12 -49 28 -101 35 -115 7 -14 11 -32 9 -39 -3 -7 0 -18 5
-25 6 -7 18 -43 27 -82 10 -38 26 -88 35 -110 10 -22 20 -48 24 -57 3 -10 12
-18 20 -18 12 0 14 5 6 23 -5 12 -28 85 -50 162 -23 77 -50 162 -60 188 -10
27 -16 56 -13 64 4 10 2 14 -4 10 -7 -5 -11 5 -11 26 0 38 -26 130 -56 201
-53 120 -90 247 -103 346 -9 73 -13 60 -13 -41z"/>
<path d="M958 946 c-10 -7 -18 -20 -18 -29 0 -9 -4 -18 -9 -21 -12 -8 -20 -56
-10 -56 5 0 9 8 9 18 0 9 11 36 25 60 13 23 23 42 22 42 -1 0 -10 -7 -19 -14z"/>
<path d="M734 942 c2 -4 -14 -6 -36 -4 -36 4 -69 -10 -56 -23 3 -3 27 -6 54
-7 122 -3 158 8 93 31 -37 13 -62 14 -55 3z"/>
<path d="M534 908 c2 -9 8 -33 12 -53 4 -24 10 -33 17 -26 12 12 3 49 -18 76
-13 15 -15 16 -11 3z"/>
<path d="M1945 870 c3 -5 15 -10 26 -10 11 0 47 -11 81 -25 69 -28 71 -29 64
-16 -3 5 -25 18 -48 28 -50 24 -133 39 -123 23z"/>
<path d="M716 861 c-5 -7 3 -9 23 -5 55 11 121 -56 121 -123 0 -17 4 -34 9
-37 13 -8 111 20 128 37 13 13 11 16 -20 26 -19 7 -38 18 -41 26 -3 8 -22 17
-43 20 -22 4 -47 17 -59 32 -24 28 -106 45 -118 24z m202 -97 c20 -13 31 -44
16 -44 -17 0 -45 24 -40 35 3 8 0 16 -7 19 -7 2 -7 5 -2 5 6 1 21 -6 33 -15z"/>
<path d="M1419 843 c6 -12 27 -34 47 -49 30 -24 44 -27 108 -27 52 0 80 5 97
17 26 18 18 22 -12 5 -27 -14 -116 -13 -154 1 -16 6 -45 26 -64 43 -26 25 -31
27 -22 10z"/>
<path d="M360 809 c15 -26 6 -36 -16 -18 -14 11 -18 10 -31 -6 -13 -18 -12
-20 11 -25 29 -6 96 -80 96 -107 0 -26 83 -118 98 -109 8 5 4 14 -13 30 -14
13 -25 27 -25 31 0 5 -8 17 -17 27 -9 10 -18 28 -20 39 -2 12 -12 32 -23 46
-25 32 -26 63 -2 63 10 0 4 7 -15 16 -18 9 -33 20 -33 25 0 5 -5 9 -10 9 -7 0
-7 -7 0 -21z"/>
<path d="M1073 773 c-18 -9 -33 -20 -33 -24 0 -13 38 2 56 22 20 23 19 23 -23
2z"/>
<path d="M0 708 c0 -58 3 -77 15 -82 8 -3 15 -10 15 -16 0 -6 -5 -8 -12 -4 -7
4 -8 3 -4 -4 8 -13 13 -35 23 -92 3 -19 10 -38 15 -41 4 -3 10 -18 12 -35 5
-37 17 -86 25 -99 3 -5 6 -19 6 -29 0 -11 8 -20 18 -22 13 -2 16 3 12 19 -10
44 -33 123 -46 152 -7 17 -11 34 -10 39 1 4 -3 14 -9 21 -6 7 -8 19 -5 27 3 8
-1 20 -9 27 -7 6 -12 21 -9 31 3 11 0 27 -7 35 -7 8 -15 43 -17 77 -6 88 -13
85 -13 -4z"/>
<path d="M710 707 c0 -21 22 -57 35 -57 8 0 15 3 15 8 0 8 -50 57 -50 49z"/>
<path d="M2127 619 c11 -13 35 -39 52 -58 17 -18 31 -36 31 -40 0 -4 7 -8 15
-8 8 0 15 4 15 9 0 4 -5 8 -11 8 -5 0 -7 5 -4 10 3 6 1 10 -5 10 -6 0 -9 4 -6
9 3 5 -1 14 -9 21 -8 7 -15 20 -15 29 0 9 -8 17 -17 18 -10 1 -29 4 -43 9
l-25 7 22 -24z"/>
<path d="M770 593 c0 -5 13 -22 29 -37 26 -25 34 -28 68 -21 34 7 36 8 16 16
-13 5 -23 13 -23 18 0 5 -12 12 -27 15 -16 4 -36 9 -45 12 -10 3 -18 1 -18 -3z"/>
<path d="M1223 567 c-40 -11 -72 -32 -62 -41 2 -2 15 -7 29 -10 16 -5 20 -4
12 2 -10 7 -10 11 3 22 18 15 105 22 105 8 0 -5 4 -7 9 -4 13 8 61 -37 61 -57
0 -19 8 -21 28 -8 19 12 -61 91 -93 91 -13 0 -29 2 -37 4 -7 2 -32 -1 -55 -7z"/>
<path d="M1863 529 c4 -13 7 -29 7 -35 0 -6 11 -16 25 -22 20 -9 23 -9 18 3
-3 8 -9 13 -13 10 -5 -3 -11 8 -15 25 -4 16 -11 33 -17 36 -8 5 -9 -1 -5 -17z"/>
<path d="M490 500 c-8 -6 -27 -7 -42 -4 -24 5 -28 2 -28 -16 0 -23 -1 -23 68
-4 16 5 22 2 22 -9 0 -8 6 -20 14 -27 8 -6 13 -17 10 -24 -3 -7 5 -39 17 -70
20 -56 20 -58 2 -72 -17 -13 -16 -14 13 -12 27 2 30 5 26 27 -2 15 -11 42 -20
61 -8 19 -15 41 -15 48 0 6 -4 12 -9 12 -5 0 -6 5 -2 11 6 11 -24 89 -35 89
-3 0 -13 -5 -21 -10z"/>
<path d="M2566 473 c4 -15 12 -31 18 -35 16 -11 36 -10 36 1 0 6 12 4 27 -4
15 -8 31 -11 36 -8 10 6 -11 23 -31 23 -7 0 -30 11 -52 25 l-41 26 7 -28z"/>
<path d="M1100 461 c-14 -5 -45 -17 -70 -28 -25 -11 -61 -26 -80 -33 -19 -7
-40 -17 -46 -22 -15 -11 -38 17 -28 34 6 10 5 11 -8 1 -8 -7 -18 -9 -23 -5 -4
4 0 -7 9 -25 10 -20 14 -43 10 -62 -5 -26 -4 -30 9 -25 10 3 17 -2 22 -15 3
-11 16 -21 28 -23 16 -2 24 -14 33 -48 l12 -45 0 58 c-1 60 -10 76 -32 57 -19
-15 -56 32 -49 60 7 26 23 26 30 0 7 -25 18 -25 79 0 27 10 68 24 91 30 23 6
45 15 48 20 3 5 -16 3 -42 -5 -26 -9 -59 -18 -73 -21 -14 -4 -30 -11 -36 -16
-11 -8 -64 5 -64 16 0 7 103 54 137 62 16 4 37 13 49 21 11 7 24 10 27 6 4 -3
7 -1 7 5 0 13 -4 14 -40 3z"/>
<path d="M1363 453 c4 -3 -1 -12 -11 -19 -20 -14 -12 -27 11 -19 22 9 29 45 9
45 -8 0 -12 -3 -9 -7z"/>
<path d="M1689 367 c-95 -82 -304 -307 -284 -307 4 0 30 26 58 57 85 94 260
263 279 269 10 3 18 10 18 15 0 5 7 9 15 9 8 0 15 5 15 10 0 23 -31 6 -101
-53z"/>
<path d="M1810 421 c0 -6 17 -10 38 -9 21 0 54 -3 73 -6 34 -7 34 -7 9 8 -27
17 -120 22 -120 7z"/>
<path d="M2240 403 c-1 -13 -26 -30 -86 -58 -83 -38 -121 -65 -73 -50 43 13
199 89 199 97 0 4 -9 12 -20 18 -17 9 -20 8 -20 -7z"/>
<path d="M1355 373 c-30 -7 -135 -73 -135 -84 0 -6 -4 -8 -9 -5 -5 4 -11 2
-13 -2 -1 -5 -29 -25 -61 -46 -33 -20 -71 -48 -85 -61 -34 -31 -42 -31 -42 -1
0 14 -4 28 -10 31 -6 4 -10 -7 -10 -24 0 -18 5 -31 13 -31 6 0 -6 -16 -28 -36
-25 -22 -29 -28 -10 -15 17 12 85 58 152 103 67 45 120 85 116 91 -3 5 3 6 16
2 15 -4 19 -3 16 7 -3 8 12 22 38 36 43 22 68 24 97 7 9 -5 8 0 -4 13 -11 12
-20 21 -20 21 -1 -1 -10 -4 -21 -6z"/>
<path d="M1425 341 c3 -5 19 -12 35 -16 37 -8 38 -25 4 -73 -21 -29 -16 -26
20 13 42 45 60 75 37 61 -5 -3 -28 1 -51 9 -50 18 -53 18 -45 6z"/>
<path d="M660 275 c0 -8 4 -24 9 -37 27 -70 52 -168 45 -179 -4 -8 -3 -9 4 -5
7 4 12 0 12 -10 0 -10 3 -15 6 -11 3 3 -3 36 -15 74 -11 37 -27 94 -36 126
-15 55 -25 72 -25 42z"/>
<path d="M114 242 c3 -20 5 -41 6 -47 0 -5 5 -3 10 5 8 12 10 11 10 -7 0 -13
6 -23 14 -23 12 0 13 6 4 33 -5 17 -12 40 -15 49 -3 9 -12 19 -20 22 -12 5
-14 -1 -9 -32z"/>
<path d="M1952 244 c-12 -8 -22 -21 -21 -27 0 -9 2 -8 6 1 2 6 8 10 13 7 4 -3
19 4 31 15 30 24 5 28 -29 4z"/>
<path d="M602 239 c3 -8 0 -26 -8 -40 -23 -42 -18 -78 14 -91 59 -24 64 -20
28 23 -19 23 -23 36 -19 67 4 26 1 42 -8 47 -8 6 -11 4 -7 -6z"/>
<path d="M2604 216 c-4 -10 -2 -22 4 -28 8 -8 13 -7 18 6 4 10 2 22 -4 28 -8
8 -13 7 -18 -6z"/>
<path d="M149 158 c-5 -17 -4 -48 2 -48 5 0 11 -11 15 -25 3 -14 9 -25 13 -25
4 0 8 -7 9 -15 1 -8 3 -22 4 -30 1 -8 10 -15 21 -15 17 0 18 2 5 23 -7 12 -22
48 -32 80 -11 31 -23 57 -28 57 -4 0 -8 -1 -9 -2z"/>
<path d="M2367 110 c-6 -23 5 -33 27 -24 21 8 21 30 0 38 -21 8 -21 8 -27 -14z"/>
<path d="M600 73 c0 -5 14 -20 32 -33 29 -21 30 -24 12 -31 -16 -6 -15 -8 9
-8 15 -1 27 3 27 8 0 22 -13 41 -28 41 -8 0 -24 7 -34 17 -10 9 -18 12 -18 6z"/>
<path d="M1336 68 c-5 -12 0 -25 17 -43 20 -22 25 -24 30 -11 4 9 -1 17 -13
21 -10 3 -20 16 -23 28 -3 19 -5 20 -11 5z"/>
<path d="M2678 3 c17 -2 47 -2 65 0 17 2 3 4 -33 4 -36 0 -50 -2 -32 -4z"/>
</g>
</svg>
